<svg viewBox="5.384 3.2862 139.191 23.5866" width="139.191" height="23.5866" xmlns="http://www.w3.org/2000/svg">
  <path fill-rule="evenodd" clip-rule="evenodd" d="M 108.743 8.072 L 103 21.667 L 138.833 21.667 L 144.575 8.072 L 108.743 8.072 Z M 110.465 19.646 L 112.321 19.646 L 115.589 12.012 L 115.664 12.012 L 118.684 19.646 L 120.54 19.646 L 116.7 10.043 L 114.553 10.043 L 110.465 19.646 Z M 121.257 10.043 L 121.257 19.646 L 122.997 19.646 L 122.997 11.497 L 124.591 11.497 C 125.025 11.497 125.38 11.57 125.655 11.717 C 125.933 11.861 126.138 12.062 126.269 12.322 C 126.404 12.581 126.471 12.881 126.471 13.222 C 126.471 13.563 126.404 13.864 126.269 14.127 C 126.138 14.39 125.935 14.596 125.66 14.746 C 125.385 14.896 124.897 14.971 124.466 14.971 L 123.594 16.401 L 124.835 16.401 C 125.575 16.401 126.199 16.265 126.705 15.993 C 127.212 15.718 127.595 15.341 127.854 14.863 C 128.114 14.385 128.243 13.838 128.243 13.222 C 128.243 12.613 128.114 12.069 127.854 11.59 C 127.598 11.109 127.218 10.731 126.715 10.456 C 126.215 10.181 125.596 10.043 124.858 10.043 L 121.257 10.043 Z M 129.31 19.646 L 129.31 10.043 L 132.911 10.043 C 133.648 10.043 134.267 10.181 134.767 10.456 C 135.271 10.731 135.651 11.109 135.907 11.59 C 136.166 12.069 136.296 12.613 136.296 13.222 C 136.296 13.838 136.166 14.385 135.907 14.863 C 135.647 15.341 135.264 15.718 134.758 15.993 C 134.252 16.265 133.628 16.401 132.887 16.401 L 131.646 16.401 L 132.519 14.971 C 132.95 14.971 133.437 14.896 133.712 14.746 C 133.988 14.596 134.191 14.39 134.322 14.127 C 134.456 13.864 134.524 13.563 134.524 13.222 C 134.524 12.881 134.456 12.581 134.322 12.322 C 134.191 12.062 133.986 11.861 133.708 11.717 C 133.433 11.57 133.078 11.497 132.643 11.497 L 131.049 11.497 L 131.049 19.646 L 129.31 19.646 Z" style="fill: rgb(255, 255, 255);"/>
  <text style="fill: rgb(255, 255, 255); font-family: Arial, sans-serif; font-size: 19px; white-space: pre;" transform="matrix(1.0480539798736572, 0, 0, 1.1036659479141235, -0.25872498750686646, -0.31310999393463135)" x="5.384" y="20.451">BOSagora</text>
</svg>
